# xmcd
#
# Track frame offsets:
#	150
#	22293
#	37745
#	64268
#	79950
#	87017
#	94159
#	115418
#	128579
#	136643
#	155977
#	169303
#	192858
#	217934
#	232752
#
# Disc length: 3272 seconds
# Revision: 0
# Processed by: cddbd v1.5.2PL0 Copyright (c) Steve Scherf et al.
# Submitted via: dBpowerAMP V12.0
#
DISCID=c30cc60f
DTITLE=Hale Dwoskin - Practical Freedom CD 04 - Feeling Great
DYEAR=2005
DGENRE=Speech
TTITLE0=Introduction
TTITLE1=Being Uncomfortable with Your Body - Likes and Dislikes
TTITLE2=Feelings about Physical Conditions
TTITLE3=Memory about Physical Conditions
TTITLE4=Resisting the Healing Process
TTITLE5=Being Unhealthy
TTITLE6=Summary of Release - Pain
TTITLE7=Resisting Pain - Saying Yes to Pain - Take a Break
TTITLE8=Welcome Back
TTITLE9=Focussing on Pain
TTITLE10=Pain and Pleasure
TTITLE11=Addiction
TTITLE12=Likes and Dislikes about Being Addicted
TTITLE13=Tiredness - Sleep
TTITLE14=Love and Hate about the Body
EXTD=
EXTT0=
EXTT1=
EXTT2=
EXTT3=
EXTT4=
EXTT5=
EXTT6=
EXTT7=
EXTT8=
EXTT9=
EXTT10=
EXTT11=
EXTT12=
EXTT13=
EXTT14=
PLAYORDER=
